<?xml version="1.0" encoding="utf-8"?>
<!-- Uploaded to: SVG Repo, www.svgrepo.com, Generator: SVG Repo Mixer Tools -->
<svg width="800px" height="800px" viewBox="0 0 1024 1024" class="icon"  version="1.1" xmlns="http://www.w3.org/2000/svg"><path d="M527.297871 108.392596h-0.522182c-0.163822 0-0.327643 0.033788-0.492489 0.033788-230.649623 0.55597-417.400163 187.667941-417.400163 418.381046 0 230.7172 186.75054 417.829171 417.400163 418.384117 0.163822 0 0.327643 0.029693 0.492489 0.029692h0.522182c231.041771 0 418.414834-187.368967 418.414833-418.414833 0-231.074536-187.373062-418.41381-418.414833-418.41381z m0.980882 803.356808l-0.294879-0.029693h-1.633097c-211.724127-0.492489-383.993857-173.187131-383.993857-384.911258s172.26973-384.415697 383.927304-384.908186l1.927976-0.033788h0.131058c211.791703 0.588734 383.897611 173.056074 383.897611 384.941974-0.002048 211.756891-171.879629 384.157678-383.962116 384.940951z" fill="#98C4D8" /><path d="M778.018718 280.271202c-45.469723-46.286784-103.653031-79.987969-168.80183-95.582767 29.680388 30.825092 54.81882 77.768186 72.696882 135.332043 33.540435-10.166157 65.674053-23.535028 96.104948-39.749276zM544.0343 177.957413v164.55373c37.169085-1.144704 73.319404-6.015326 108.231846-14.450094-26.346617-83.287952-67.438207-137.815989-108.231846-150.103636zM660.601597 357.514134c-37.557138 9.121794-76.55693 14.450094-116.567297 15.591726v136.96514h136.149103c-1.21228-56.355672-8.204393-107.870415-19.581806-152.556866zM401.478746 327.866511c35.139744 8.499272 71.622826 13.499928 109.082695 14.644632V177.562193c-41.058825 11.701985-82.538468 66.423537-109.082695 150.304318zM680.183403 543.543859H544.0343v136.835107c40.010367 1.178492 79.039852 6.474027 116.600061 15.562033 11.344649-44.619899 18.336762-96.104948 19.549042-152.39714zM710.974707 510.071h167.660198c-3.695202-78.156239-32.853408-149.678724-79.53234-206.428592-34.28992 18.862015-70.739213 34.323708-108.918874 45.864943 12.258979 48.378582 19.613547 102.772489 20.791016 160.563649zM393.047051 696.168301c37.850993-9.251828 77.175356-14.610844 117.51439-15.789335V543.543859H373.465244c1.178492 56.423249 8.238181 107.937991 19.581807 152.624442zM373.465244 510.071h137.096197v-136.96514c-40.33801-1.17542-79.662374-6.537508-117.483674-15.755547-11.341578 44.719215-18.434031 96.301534-19.612523 152.720687zM444.136881 184.949526c-64.657334 15.755547-122.385013 49.329771-167.559858 95.321676a531.90945 531.90945 0 0 0 95.221336 39.488185c17.847345-57.273073 42.821956-104.014462 72.338522-134.809861zM609.183099 868.927448c65.21228-15.591726 123.398659-49.359464 168.93596-95.680036-30.467756-16.244965-62.601373-29.613835-96.171501-39.779992-17.882157 57.627338-42.986801 104.60422-72.764459 135.460028zM690.218504 703.98157c38.213448 11.508471 74.661718 26.999856 108.982354 45.894636 46.614427-56.714032 75.773657-128.238565 79.435071-206.332347h-167.661222c-1.177468 57.728702-8.532036 112.058105-20.756203 160.437711zM544.0343 710.910202v164.75134c40.793639-12.291743 81.919017-66.879166 108.231846-150.267458-34.878654-8.402003-71.062761-13.30539-108.231846-14.483882zM363.462908 349.309741c-37.855088-11.440895-73.975715-26.805318-108.038332-45.566992-46.611356 56.714032-75.80335 128.235494-79.465787 206.328251h166.679316c1.210232-57.858736 8.567872-112.316125 20.824803-160.761259zM510.561441 876.05369V710.910202c-37.459868 1.178492-73.975715 6.14536-109.146176 14.67842 26.541155 83.943238 68.057658 138.698578 109.146176 150.465068zM342.640152 543.543859H175.959813c3.662438 78.092758 32.853408 149.618315 79.465787 206.332347a564.22839 564.22839 0 0 1 108.038332-45.633545c-12.257955-48.379605-19.615595-102.840066-20.82378-160.698802zM276.476683 773.247412c45.208633 46.025693 102.970099 79.662374 167.660198 95.418945-29.550354-30.825092-54.55773-77.601293-72.372311-134.936823a530.508775 530.508775 0 0 0-95.287887 39.517878z" fill="#98C4D8" /><path d="M493.825012 74.919737h-0.522182c-0.163822 0-0.327643 0.033788-0.492489 0.033788-230.650647 0.55597-417.400163 187.666917-417.400163 418.381046 0 230.7172 186.75054 417.829171 417.400163 418.384117 0.163822 0 0.327643 0.029693 0.492489 0.029692h0.522182c231.041771 0 418.414834-187.368967 418.414833-418.414833-0.001024-231.074536-187.373062-418.41381-418.414833-418.41381z m0.980882 803.356808l-0.294879-0.029693h-1.633097c-211.725151-0.492489-383.994881-173.188155-383.994881-384.912281S281.152767 108.918873 492.810341 108.426384l1.927976-0.033788h0.131058c211.791703 0.588734 383.896588 173.056074 383.896587 384.941975 0 211.757915-171.877582 384.158702-383.960068 384.941974z" fill="#EFD9A0" /><path d="M744.545859 246.798343c-45.469723-46.286784-103.653031-79.987969-168.80183-95.582767 29.680388 30.825092 54.81882 77.768186 72.696882 135.332043 33.539412-10.166157 65.674053-23.535028 96.104948-39.749276zM510.561441 144.48353v164.55373c37.169085-1.144704 73.319404-6.015326 108.231846-14.450094-26.346617-83.287952-67.438207-137.814965-108.231846-150.103636zM627.128738 324.040251c-37.557138 9.121794-76.55693 14.450094-116.567297 15.591726v136.96514h136.149103c-1.21228-56.354648-8.204393-107.869391-19.581806-152.556866zM368.005887 294.393652c35.139744 8.499272 71.622826 13.499928 109.082695 14.644632V144.089334c-41.058825 11.701985-82.538468 66.423537-109.082695 150.304318zM646.710544 510.071H510.561441v136.835107c40.010367 1.178492 79.039852 6.474027 116.600061 15.562033 11.344649-44.619899 18.336762-96.104948 19.549042-152.39714zM677.501848 476.598141h167.660198c-3.695202-78.156239-32.853408-149.678724-79.532341-206.428592-34.28992 18.862015-70.739213 34.323708-108.918873 45.864943 12.258979 48.378582 19.612523 102.772489 20.791016 160.563649zM359.574192 662.695442c37.850993-9.251828 77.175356-14.610844 117.51439-15.789335V510.071H339.992385c1.177468 56.422225 8.237157 107.937991 19.581807 152.624442zM339.992385 476.598141h137.096197v-136.96514c-40.339034-1.174396-79.662374-6.537508-117.483674-15.755547-11.341578 44.719215-18.435055 96.301534-19.612523 152.720687zM410.664022 151.476667c-64.657334 15.755547-122.385013 49.329771-167.559858 95.321676a531.87771 531.87771 0 0 0 95.221336 39.488185c17.847345-57.273073 42.821956-104.014462 72.338522-134.809861zM575.71024 835.453565c65.21228-15.591726 123.398659-49.359464 168.93596-95.680036-30.467756-16.244965-62.601373-29.613835-96.171501-39.779992-17.882157 57.628362-42.986801 104.60422-72.764459 135.460028zM656.745644 670.507687c38.213448 11.508471 74.661718 26.999856 108.982354 45.894636 46.614427-56.714032 75.773657-128.238565 79.435072-206.332347h-167.661222c-1.178492 57.728702-8.532036 112.059129-20.756204 160.437711zM510.561441 677.437343v164.75134c40.793639-12.291743 81.919017-66.879166 108.231846-150.267458-34.878654-8.402003-71.063785-13.306414-108.231846-14.483882zM329.990049 315.835858c-37.855088-11.440895-73.975715-26.805318-108.038332-45.566992-46.611356 56.714032-75.80335 128.235494-79.465787 206.328251H309.165245c1.209209-57.857712 8.566849-112.315101 20.824804-160.761259zM477.088582 842.579807v-165.142464c-37.459868 1.178492-73.975715 6.14536-109.146176 14.67842 26.540132 83.943238 68.057658 138.698578 109.146176 150.464044zM309.166269 510.071H142.486953c3.662438 78.092758 32.853408 149.618315 79.465788 206.332347a564.22839 564.22839 0 0 1 108.038332-45.633545c-12.258979-48.379605-19.616619-102.840066-20.824804-160.698802zM243.003824 739.774553c45.208633 46.025693 102.970099 79.662374 167.660198 95.418945-29.550354-30.825092-54.55773-77.601293-72.372311-134.936823a530.434031 530.434031 0 0 0-95.287887 39.517878z" fill="#EFD9A0" /><path d="M268.527132 297.696203a30.114515 63.993857 55.515 1 0 105.497001-72.465422 30.114515 63.993857 55.515 1 0-105.497001 72.465422Z" fill="#FEFEFE" /><path d="M203.861426 403.008737a20.076343 35.133601 55.515 1 0 57.919459-39.78462 20.076343 35.133601 55.515 1 0-57.919459 39.78462Z" fill="#FEFEFE" /></svg>